<?xml version="1.0" encoding="iso-8859-1"?>
<!-- Generator: Adobe Illustrator 19.0.0, SVG Export Plug-In . SVG Version: 6.00 Build 0)  -->
<svg version="1.1" id="Layer_1" xmlns="http://www.w3.org/2000/svg" xmlns:xlink="http://www.w3.org/1999/xlink" x="0px" y="0px"
	 viewBox="0 0 512 512" style="enable-background:new 0 0 512 512;" xml:space="preserve">
<g>
	<g>
		<path d="M322.884,214.063c-23.741-23.737-62.227-23.739-85.967,0L82.184,368.797l85.962,85.961l154.738-154.733
			C346.622,276.287,346.62,237.8,322.884,214.063z"/>
	</g>
</g>
<g>
	<g>
		<path d="M78.24,416.43c-18.548,2.904-38.19-2.763-52.453-17.025L0,425.194c28.999,28.999,71.899,35.794,107.441,20.44
			L78.24,416.43z"/>
	</g>
</g>
<g>
	<g>
		<path d="M469.018,119.503c14.244-14.242,14.247-37.335,0-51.575c-14.24-14.247-37.335-14.247-51.577-0.002l-42.981,42.984
			l51.577,51.575l17.194-17.194l42.981,42.984L512,162.486L469.018,119.503z"/>
	</g>
</g>
<g>
	<g>
		<path d="M348.669,136.697l-30.823,30.823c11.208,4.735,21.706,11.634,30.824,20.752c9.118,9.118,16.018,19.618,20.752,30.824
			l30.824-30.824L348.669,136.697z"/>
	</g>
</g>
<g>
</g>
<g>
</g>
<g>
</g>
<g>
</g>
<g>
</g>
<g>
</g>
<g>
</g>
<g>
</g>
<g>
</g>
<g>
</g>
<g>
</g>
<g>
</g>
<g>
</g>
<g>
</g>
<g>
</g>
</svg>
